<?xml version="1.0" standalone="no"?><!DOCTYPE svg PUBLIC "-//W3C//DTD SVG 1.1//EN" "http://www.w3.org/Graphics/SVG/1.1/DTD/svg11.dtd"><svg height="1024" node-id="1" sillyvg="true" template-height="1024" template-width="1024" version="1.1" viewBox="0 0 1024 1024" width="1024" xmlns="http://www.w3.org/2000/svg" xmlns:xlink="http://www.w3.org/1999/xlink"><defs node-id="26"></defs><g node-id="28"><path d="M 899.10 734.00 L 898.80 739.00 L 897.90 744.10 L 896.30 749.10 L 894.20 754.20 L 891.30 759.40 L 888.10 764.10 L 884.30 768.80 L 879.80 773.70 L 874.50 778.60 L 868.50 783.60 L 860.90 789.10 L 852.30 794.60 L 842.60 800.20 L 831.60 805.80 L 820.70 810.80 L 808.70 815.80 L 795.70 820.70 L 781.40 825.60 L 752.40 834.00 L 720.20 841.70 L 686.80 848.20 L 651.00 853.60 L 626.80 856.60 L 601.80 859.00 L 576.00 861.00 L 550.10 862.40 L 523.90 863.20 L 497.20 863.50 L 470.50 863.20 L 444.20 862.40 L 418.40 861.00 L 392.60 859.00 L 367.60 856.60 L 343.40 853.60 L 307.60 848.20 L 274.20 841.70 L 242.00 834.00 L 213.00 825.60 L 198.70 820.70 L 185.70 815.80 L 173.70 810.80 L 162.80 805.80 L 151.80 800.20 L 142.10 794.60 L 133.50 789.10 L 125.90 783.60 L 119.90 778.60 L 114.60 773.70 L 110.10 768.80 L 106.30 764.10 L 103.10 759.40 L 100.20 754.20 L 98.10 749.10 L 96.50 744.10 L 95.60 739.00 L 95.30 734.00 L 95.60 729.00 L 96.50 723.90 L 98.10 718.90 L 100.20 713.80 L 103.10 708.60 L 106.30 703.90 L 110.10 699.10 L 114.60 694.30 L 119.90 689.40 L 125.90 684.40 L 133.50 678.90 L 142.10 673.40 L 151.80 667.80 L 162.80 662.10 L 173.70 657.10 L 185.70 652.20 L 198.70 647.30 L 213.00 642.40 L 242.00 634.00 L 274.20 626.30 L 307.60 619.80 L 343.40 614.40 L 367.60 611.40 L 392.60 609.00 L 418.40 607.00 L 444.20 605.60 L 470.50 604.80 L 497.20 604.50 L 523.90 604.80 L 550.10 605.60 L 576.00 607.00 L 601.80 609.00 L 626.80 611.40 L 651.00 614.40 L 686.80 619.80 L 720.20 626.30 L 752.40 634.00 L 781.40 642.40 L 795.70 647.30 L 808.70 652.20 L 820.70 657.10 L 831.60 662.10 L 842.60 667.80 L 852.30 673.40 L 860.90 678.90 L 868.50 684.40 L 874.50 689.40 L 879.80 694.30 L 884.30 699.10 L 888.10 703.90 L 891.30 708.60 L 894.20 713.80 L 896.30 718.90 L 897.90 723.90 L 898.80 729.00 L 899.10 734.00 Z" fill="#cccccc" fill-rule="nonzero" group-id="1" id="椭圆形" node-id="6" stroke="none" target-height="259" target-width="803.8" target-x="95.3" target-y="604.5"></path><path d="M 221.20 373.20 L 558.20 417.70 L 558.20 751.10 L 237.20 712.50 L 234.20 711.90 L 231.50 710.80 L 229.00 709.40 L 226.70 707.50 L 224.80 705.40 L 223.30 702.90 L 222.10 700.30 L 221.40 697.40 L 221.20 694.40 L 221.20 373.20 Z" fill="#ffffff" fill-rule="evenodd" group-id="1" id="矩形" node-id="7" stroke="none" target-height="377.89996" target-width="337" target-x="221.2" target-y="373.2"></path><path d="M 221.20 373.20 L 558.20 417.70 L 558.20 751.10 L 237.20 712.50 L 234.20 711.90 L 231.50 710.80 L 229.00 709.40 L 226.70 707.50 L 224.80 705.40 L 223.30 702.90 L 222.10 700.30 L 221.40 697.40 L 221.20 694.40 L 221.20 373.20 Z M 227.20 380.00 L 227.20 694.40 L 227.80 698.30 L 229.60 701.80 L 232.40 704.40 L 234.10 705.40 L 237.90 706.50 L 552.20 744.30 L 552.20 422.90 L 227.20 380.00 Z" fill="#000000" fill-rule="nonzero" group-id="1" id="矩形" node-id="8" stroke="none" target-height="377.89996" target-width="337" target-x="221.2" target-y="373.2"></path><g node-id="29"><path d="M 767.10 322.50 L 552.30 417.70 L 552.30 751.10 L 756.00 664.50 L 760.10 662.10 L 763.40 658.80 L 765.70 654.70 L 766.50 652.50 L 767.10 647.70 L 767.10 322.50 Z" fill="#ffffff" fill-rule="evenodd" group-id="1,2" id="矩形备份" node-id="9" stroke="none" target-height="428.59998" target-width="214.79999" target-x="552.3" target-y="322.5"></path></g><g node-id="30"><path d="M 767.10 322.50 L 552.30 417.70 L 552.30 751.10 L 756.00 664.50 L 760.10 662.10 L 763.40 658.80 L 765.70 654.70 L 766.50 652.50 L 767.10 647.70 L 767.10 322.50 Z M 761.10 331.70 L 761.10 647.70 L 760.90 650.20 L 760.20 652.40 L 759.10 654.50 L 757.60 656.30 L 755.80 657.80 L 753.60 659.00 L 558.30 742.00 L 558.30 421.60 L 761.10 331.70 Z" fill="#000000" fill-rule="nonzero" group-id="1,3" id="矩形备份" node-id="10" stroke="none" target-height="428.59998" target-width="214.79999" target-x="552.3" target-y="322.5"></path></g><path d="M 457.30 290.60 L 773.10 322.20 L 554.40 418.50 L 221.20 372.90 Z" fill="#009688" fill-rule="nonzero" group-id="1" id="矩形" node-id="11" stroke="none" target-height="127.899994" target-width="551.89996" target-x="221.2" target-y="290.6"></path><path d="M 552.80 418.50 L 772.70 322.50 L 839.80 420.90 L 841.20 423.50 L 842.10 426.10 L 842.50 428.80 L 842.50 431.60 L 842.00 434.20 L 841.00 436.80 L 839.60 439.10 L 837.80 441.20 L 835.60 443.10 L 833.50 444.30 L 652.30 531.60 L 647.50 533.00 L 642.70 532.90 L 638.10 531.40 L 634.20 528.60 L 632.50 526.70 L 552.80 418.50 Z" fill="#ffffff" fill-rule="evenodd" group-id="1" id="矩形" node-id="12" stroke="none" target-height="210.5" target-width="289.7" target-x="552.8" target-y="322.5"></path><path d="M 772.70 322.50 L 839.80 420.90 L 841.20 423.50 L 842.10 426.10 L 842.50 428.80 L 842.50 431.60 L 842.00 434.20 L 841.00 436.80 L 839.60 439.10 L 837.80 441.20 L 835.60 443.10 L 833.50 444.30 L 652.30 531.60 L 647.50 533.00 L 642.70 532.90 L 638.10 531.40 L 634.20 528.60 L 632.50 526.70 L 552.80 418.50 L 772.70 322.50 Z M 770.60 330.00 L 562.10 421.00 L 637.30 523.10 L 638.90 524.80 L 640.80 526.10 L 642.80 526.80 L 645.00 527.20 L 647.20 527.00 L 649.40 526.30 L 830.90 438.90 L 833.60 437.00 L 834.70 435.70 L 836.20 432.60 L 836.50 429.20 L 835.70 425.90 L 834.80 424.30 L 770.60 330.00 Z" fill="#000000" fill-rule="nonzero" group-id="1" id="矩形" node-id="13" stroke="none" target-height="210.5" target-width="289.7" target-x="552.8" target-y="322.5"></path><g node-id="31"><path d="M 558.30 417.70 L 221.00 372.10 L 153.90 464.40 L 152.40 466.90 L 151.50 469.50 L 151.00 472.20 L 150.90 474.90 L 151.40 477.60 L 152.20 480.20 L 153.50 482.60 L 155.30 484.70 L 157.50 486.70 L 159.70 488.00 L 162.00 489.00 L 164.50 489.50 L 461.20 534.80 L 464.20 535.00 L 467.00 534.60 L 469.70 533.80 L 472.30 532.40 L 474.50 530.70 L 476.50 528.50 L 558.30 417.70 Z" fill="#ffffff" fill-rule="evenodd" group-id="1,4" id="矩形备份-2" node-id="14" stroke="none" target-height="162.9" target-width="407.4" target-x="150.9" target-y="372.1"></path></g><g node-id="32"><path d="M 221.00 372.10 L 153.90 464.40 L 152.40 466.90 L 151.50 469.50 L 151.00 472.20 L 150.90 474.90 L 151.40 477.60 L 152.20 480.20 L 153.50 482.60 L 155.30 484.70 L 157.50 486.70 L 159.70 488.00 L 164.50 489.50 L 461.20 534.80 L 464.20 535.00 L 467.00 534.60 L 469.70 533.80 L 472.30 532.40 L 474.50 530.70 L 476.50 528.50 L 558.30 417.70 L 221.00 372.10 Z M 223.70 378.50 L 547.40 422.30 L 471.70 524.90 L 470.50 526.30 L 467.60 528.20 L 464.20 528.90 L 462.40 528.90 L 165.40 483.60 L 163.10 483.00 L 161.00 481.80 L 158.50 479.30 L 157.70 477.80 L 156.90 474.50 L 157.20 471.10 L 158.80 467.90 L 223.70 378.50 Z" fill="#000000" fill-rule="nonzero" group-id="1,5" id="矩形备份-2" node-id="15" stroke="none" target-height="162.9" target-width="407.4" target-x="150.9" target-y="372.1"></path></g><path d="M 457.90 291.60 L 459.10 291.80 L 460.00 292.40 L 460.70 293.40 L 460.90 294.60 L 460.90 406.90 L 460.70 408.10 L 460.00 409.10 L 459.10 409.70 L 457.90 409.90 L 456.70 409.70 L 455.80 409.10 L 455.20 408.10 L 454.90 406.90 L 454.90 294.60 L 455.20 293.40 L 455.80 292.40 L 456.70 291.80 L 457.90 291.60 Z" fill="#000000" fill-rule="nonzero" group-id="1" id="路径-7" node-id="16" stroke="none" target-height="118.29999" target-width="6" target-x="454.9" target-y="291.6"></path><path d="M 623.80 242.10 L 628.30 242.90 L 632.00 245.10 L 634.80 248.40 L 635.70 250.30 L 636.50 254.80 L 635.70 259.20 L 633.50 262.90 L 630.20 265.70 L 626.10 267.20 L 623.80 267.40 L 621.50 267.20 L 619.40 266.60 L 615.60 264.40 L 612.90 261.10 L 611.90 259.20 L 611.20 254.80 L 611.90 250.30 L 614.10 246.60 L 617.40 243.80 L 619.40 242.90 L 623.80 242.10 Z M 623.80 245.40 L 620.50 246.00 L 619.10 246.60 L 617.20 248.10 L 615.70 250.00 L 615.00 251.50 L 614.40 254.80 L 615.00 258.00 L 615.70 259.50 L 617.20 261.40 L 619.10 262.90 L 622.10 264.00 L 623.80 264.10 L 627.10 263.60 L 628.60 262.90 L 630.50 261.40 L 631.90 259.50 L 632.60 258.00 L 633.20 254.80 L 632.60 251.50 L 631.90 250.00 L 630.50 248.10 L 628.60 246.60 L 627.10 246.00 L 623.80 245.40 Z" fill="#000000" fill-rule="nonzero" group-id="1" id="椭圆形" node-id="17" stroke="none" target-height="25.299988" target-width="25.299988" target-x="611.2" target-y="242.1"></path><path d="M 360.00 207.40 L 359.60 211.10 L 358.70 214.50 L 357.20 217.70 L 355.20 220.50 L 352.70 223.00 L 349.90 225.00 L 346.70 226.50 L 343.30 227.40 L 339.60 227.80 L 335.90 227.40 L 332.50 226.50 L 329.30 225.00 L 326.40 223.00 L 324.00 220.50 L 322.00 217.70 L 320.50 214.50 L 319.50 211.10 L 319.20 207.40 L 319.50 203.70 L 320.50 200.30 L 322.00 197.10 L 324.00 194.20 L 326.40 191.80 L 329.30 189.80 L 332.50 188.30 L 335.90 187.30 L 339.60 187.00 L 343.30 187.30 L 346.70 188.30 L 349.90 189.80 L 352.70 191.80 L 355.20 194.20 L 357.20 197.10 L 358.70 200.30 L 359.60 203.70 L 360.00 207.40 Z" fill="#009688" fill-rule="nonzero" group-id="1" id="椭圆形备份-2" node-id="18" stroke="none" target-height="40.800003" target-width="40.799988" target-x="319.2" target-y="187"></path><path d="M 339.60 187.00 L 343.30 187.30 L 346.70 188.30 L 349.90 189.80 L 352.70 191.80 L 355.20 194.20 L 357.20 197.10 L 358.70 200.30 L 359.60 203.70 L 360.00 207.40 L 359.60 211.10 L 358.70 214.50 L 357.20 217.70 L 355.20 220.50 L 352.70 223.00 L 349.90 225.00 L 346.70 226.50 L 343.30 227.40 L 339.60 227.80 L 335.90 227.40 L 332.50 226.50 L 329.30 225.00 L 326.40 223.00 L 324.00 220.50 L 322.00 217.70 L 320.50 214.50 L 319.50 211.10 L 319.20 207.40 L 319.50 203.70 L 320.50 200.30 L 322.00 197.10 L 324.00 194.20 L 326.40 191.80 L 329.30 189.80 L 332.50 188.30 L 335.90 187.30 L 339.60 187.00 Z M 339.60 189.30 L 336.30 189.60 L 333.30 190.40 L 330.40 191.80 L 327.90 193.60 L 325.80 195.70 L 324.00 198.20 L 322.60 201.10 L 321.80 204.10 L 321.50 207.40 L 321.80 210.70 L 322.60 213.70 L 324.00 216.50 L 325.80 219.10 L 327.90 221.20 L 330.40 223.00 L 333.30 224.30 L 336.30 225.20 L 339.60 225.50 L 342.90 225.20 L 345.90 224.30 L 348.70 223.00 L 351.30 221.20 L 353.40 219.10 L 355.20 216.50 L 356.60 213.70 L 357.40 210.70 L 357.70 207.40 L 357.40 204.10 L 356.60 201.10 L 355.20 198.20 L 353.40 195.70 L 351.30 193.60 L 348.70 191.80 L 345.90 190.40 L 342.90 189.60 L 339.60 189.30 Z" fill="#009688" fill-rule="nonzero" group-id="1" id="椭圆形备份-2" node-id="19" stroke="none" target-height="40.800003" target-width="40.799988" target-x="319.2" target-y="187"></path><path d="M 798.60 707.20 L 798.40 709.70 L 797.70 712.10 L 796.50 714.20 L 794.90 716.20 L 793.00 717.80 L 790.80 718.90 L 788.40 719.60 L 786.00 719.90 L 783.50 719.60 L 781.10 718.90 L 778.90 717.80 L 777.00 716.20 L 775.40 714.20 L 774.30 712.10 L 773.50 709.70 L 773.30 707.20 L 773.50 704.70 L 774.30 702.40 L 775.40 700.20 L 777.00 698.30 L 778.90 696.70 L 781.10 695.50 L 783.50 694.80 L 786.00 694.50 L 788.40 694.80 L 790.80 695.50 L 793.00 696.70 L 794.90 698.30 L 796.50 700.20 L 797.70 702.40 L 798.40 704.70 L 798.60 707.20 Z" fill="#ffffff" fill-rule="evenodd" group-id="1" id="椭圆形备份-3" node-id="20" stroke="none" target-height="25.400024" target-width="25.299988" target-x="773.3" target-y="694.5"></path><path d="M 88.20 457.50 L 90.50 458.10 L 92.20 459.80 L 92.60 460.90 L 92.80 472.90 L 105.00 473.10 L 106.10 473.60 L 107.70 475.20 L 108.30 477.50 L 108.10 479.50 L 107.70 480.60 L 106.10 482.20 L 105.00 482.70 L 92.80 482.90 L 92.60 495.00 L 92.20 496.00 L 90.50 497.70 L 88.20 498.30 L 86.20 498.10 L 85.10 497.70 L 83.50 496.00 L 83.10 495.00 L 82.90 482.90 L 70.90 482.70 L 69.80 482.20 L 68.20 480.60 L 67.60 478.30 L 67.70 476.30 L 68.20 475.20 L 69.80 473.60 L 70.90 473.10 L 82.90 472.90 L 83.10 460.90 L 83.50 459.80 L 85.10 458.10 L 86.20 457.70 L 88.20 457.50 Z" fill="#009688" fill-rule="nonzero" group-id="1" id="形状结合" node-id="21" stroke="none" target-height="40.799988" target-width="40.700005" target-x="67.6" target-y="457.5"></path><path d="M 88.20 457.50 L 90.50 458.10 L 92.20 459.80 L 92.60 460.90 L 92.80 472.90 L 105.00 473.10 L 106.10 473.60 L 107.70 475.20 L 108.30 477.50 L 108.10 479.50 L 107.70 480.60 L 106.10 482.20 L 105.00 482.70 L 92.80 482.90 L 92.60 495.00 L 92.20 496.00 L 90.50 497.70 L 88.20 498.30 L 86.20 498.10 L 85.10 497.70 L 83.50 496.00 L 83.10 495.00 L 82.90 482.90 L 70.90 482.70 L 69.80 482.20 L 68.20 480.60 L 67.60 478.30 L 67.70 476.30 L 68.20 475.20 L 69.80 473.60 L 70.90 473.10 L 82.90 472.90 L 83.10 460.90 L 83.50 459.80 L 85.10 458.10 L 86.20 457.70 L 88.20 457.50 Z M 88.20 459.80 L 86.60 460.00 L 85.80 460.50 L 85.20 462.10 L 85.20 475.20 L 72.10 475.20 L 70.50 475.90 L 69.80 477.50 L 70.00 479.20 L 70.50 479.90 L 72.10 480.60 L 85.20 480.60 L 85.20 493.70 L 85.30 494.60 L 86.60 495.80 L 89.10 495.80 L 90.30 494.60 L 90.50 480.60 L 103.80 480.60 L 105.40 479.90 L 106.00 478.30 L 105.90 476.60 L 105.40 475.90 L 103.80 475.20 L 90.50 475.20 L 90.50 462.10 L 89.80 460.50 L 88.20 459.80 Z" fill="#009688" fill-rule="nonzero" group-id="1" id="形状结合" node-id="22" stroke="none" target-height="40.799988" target-width="40.700005" target-x="67.6" target-y="457.5"></path><path d="M 712.40 641.50 L 713.60 641.20 L 714.70 641.40 L 715.70 642.00 L 716.40 643.00 L 716.60 644.20 L 716.40 645.30 L 715.80 646.30 L 714.80 646.90 L 639.80 680.00 L 638.60 680.30 L 637.50 680.10 L 636.50 679.40 L 635.80 678.50 L 635.60 677.30 L 635.80 676.20 L 636.40 675.20 L 637.40 674.50 L 712.40 641.50 Z" fill="#000000" fill-rule="nonzero" group-id="1" id="路径-8" node-id="23" stroke="none" target-height="39.099976" target-width="81" target-x="635.6" target-y="641.2"></path><path d="M 458.20 287.60 L 773.40 322.10 L 774.30 327.90 L 556.40 423.80 L 554.80 424.10 L 221.80 378.00 L 221.20 372.20 L 456.90 287.70 L 458.20 287.60 Z M 458.30 293.60 L 234.80 373.70 L 554.80 418.00 L 761.70 326.90 L 458.30 293.60 Z" fill="#000000" fill-rule="nonzero" group-id="1" id="路径-9" node-id="24" stroke="none" target-height="136.5" target-width="553.1" target-x="221.2" target-y="287.6"></path></g></svg>