<?xml version="1.0" standalone="no"?><!DOCTYPE svg PUBLIC "-//W3C//DTD SVG 1.1//EN" "http://www.w3.org/Graphics/SVG/1.1/DTD/svg11.dtd"><svg t="1696397989675" class="icon" viewBox="0 0 1024 1024" version="1.1" xmlns="http://www.w3.org/2000/svg" p-id="5281" xmlns:xlink="http://www.w3.org/1999/xlink" width="64" height="64"><path d="M885.333333 168.533333h-448L341.333333 110.933333c-6.4-4.266667-14.933333-6.4-21.333333-6.4H134.4c-51.2 0-93.866667 42.666667-93.866667 93.866667v622.933333c0 51.2 42.666667 93.866667 93.866667 93.866667h750.933333c51.2 0 93.866667-42.666667 93.866667-93.866667V262.4c0-51.2-40.533333-93.866667-93.866667-93.866667z m-738.133333 21.333334h160l96 57.6c6.4 4.266667 14.933333 6.4 21.333333 6.4h445.866667c12.8 0 21.333333 8.533333 21.333333 21.333333V298.666667c0 12.8-8.533333 21.333333-21.333333 21.333333h-725.333333c-12.8 0-21.333333-8.533333-21.333334-21.333333V211.2c2.133333-10.666667 12.8-21.333333 23.466667-21.333333z" fill="#80B8F8" p-id="5282"></path></svg>