; NON-PLATED HOLES START AT T1
; THROUGH (PLATED) HOLES START AT T100
M48
INCH
T100C0.039370
T101C0.031496
T102C0.035000
T103C0.038000
T104C0.032000
%
T100
X015608Y003047
X002024Y000748
X001024Y000748
X013639Y001748
X013639Y004228
T101
X004023Y002748
X011024Y004748
X016024Y004748
X004023Y000748
T102
X016024Y006748
X008024Y010748
X010024Y005748
X004024Y010748
X010024Y009748
X013024Y008748
X005024Y005748
X013024Y010748
X010024Y002748
X001024Y005748
X010024Y007748
X010024Y008748
X009024Y010748
X010024Y003748
X007024Y003748
X013024Y009748
X007024Y004748
X005024Y004748
X001024Y004748
X007024Y008748
X010024Y006748
X015024Y006748
X007024Y006748
X007024Y002748
X007024Y007748
X007024Y005748
X005024Y003748
X007024Y009748
X001024Y003748
X010024Y004748
T103
X001024Y011748
X015024Y008748
X015024Y009748
X006024Y009748
X006024Y007748
X013024Y007748
X006024Y006748
X011024Y003748
X011024Y008748
X002024Y011748
X013024Y005748
X006024Y008748
X011024Y002748
X013024Y006748
T104
X002024Y006748
X002024Y009748
X004024Y006748
X003024Y009748
X003024Y006748
X004024Y009748
T00
M30
