G04 MADE WITH FRITZING*
G04 WWW.FRITZING.ORG*
G04 DOUBLE SIDED*
G04 HOLES PLATED*
G04 CONTOUR ON CENTER OF CONTOUR VECTOR*
%ASAXBY*%
%FSLAX23Y23*%
%MOIN*%
%OFA0B0*%
%SFA1.0B1.0*%
%ADD10C,0.085000*%
%ADD11C,0.104488*%
%ADD12C,0.088740*%
%ADD13C,0.096614*%
%ADD14C,0.089370*%
%ADD15C,0.088000*%
%ADD16C,0.062000*%
%ADD17R,0.085000X0.085000*%
%ADD18R,0.001000X0.001000*%
%LNMASK1*%
G90*
G70*
G54D10*
X802Y1075D03*
X402Y1075D03*
X902Y1075D03*
X1302Y1075D03*
G54D11*
X1602Y475D03*
G54D12*
X1102Y475D03*
G54D13*
X402Y75D03*
X402Y275D03*
G54D14*
X102Y75D03*
X202Y75D03*
G54D15*
X1502Y975D03*
X1502Y875D03*
X102Y1175D03*
X202Y1175D03*
X1102Y375D03*
X1102Y275D03*
G54D12*
X1364Y423D03*
X1364Y175D03*
X1561Y305D03*
X1364Y423D03*
X1364Y175D03*
X1561Y305D03*
G54D15*
X1102Y875D03*
X602Y975D03*
X602Y875D03*
X602Y775D03*
X602Y675D03*
G54D10*
X1602Y675D03*
X1502Y675D03*
X1302Y975D03*
X1302Y875D03*
G54D15*
X1302Y775D03*
X1302Y675D03*
X1302Y575D03*
G54D10*
X702Y975D03*
X1002Y975D03*
X702Y875D03*
X1002Y875D03*
X702Y775D03*
X1002Y775D03*
X702Y675D03*
X1002Y675D03*
X702Y575D03*
X1002Y575D03*
X702Y475D03*
X1002Y475D03*
X702Y375D03*
X1002Y375D03*
X702Y275D03*
X1002Y275D03*
G54D16*
X302Y675D03*
X402Y675D03*
X402Y975D03*
X302Y975D03*
X302Y675D03*
X402Y675D03*
X402Y975D03*
X302Y975D03*
X202Y675D03*
X302Y675D03*
X302Y975D03*
X202Y975D03*
X202Y675D03*
X302Y675D03*
X302Y975D03*
X202Y975D03*
G54D10*
X502Y375D03*
X102Y375D03*
X502Y475D03*
X102Y475D03*
X502Y575D03*
X102Y575D03*
G54D17*
X1602Y675D03*
X1302Y975D03*
X702Y975D03*
G54D18*
X200Y1032D02*
X204Y1032D01*
X300Y1032D02*
X304Y1032D01*
X400Y1032D02*
X404Y1032D01*
X194Y1031D02*
X209Y1031D01*
X294Y1031D02*
X309Y1031D01*
X394Y1031D02*
X409Y1031D01*
X191Y1030D02*
X212Y1030D01*
X291Y1030D02*
X312Y1030D01*
X391Y1030D02*
X412Y1030D01*
X189Y1029D02*
X215Y1029D01*
X289Y1029D02*
X315Y1029D01*
X389Y1029D02*
X415Y1029D01*
X187Y1028D02*
X217Y1028D01*
X287Y1028D02*
X317Y1028D01*
X387Y1028D02*
X417Y1028D01*
X185Y1027D02*
X218Y1027D01*
X285Y1027D02*
X318Y1027D01*
X385Y1027D02*
X418Y1027D01*
X184Y1026D02*
X220Y1026D01*
X284Y1026D02*
X320Y1026D01*
X384Y1026D02*
X420Y1026D01*
X183Y1025D02*
X221Y1025D01*
X283Y1025D02*
X321Y1025D01*
X383Y1025D02*
X421Y1025D01*
X181Y1024D02*
X222Y1024D01*
X281Y1024D02*
X322Y1024D01*
X381Y1024D02*
X422Y1024D01*
X180Y1023D02*
X223Y1023D01*
X280Y1023D02*
X323Y1023D01*
X380Y1023D02*
X423Y1023D01*
X179Y1022D02*
X224Y1022D01*
X279Y1022D02*
X324Y1022D01*
X379Y1022D02*
X424Y1022D01*
X179Y1021D02*
X225Y1021D01*
X279Y1021D02*
X325Y1021D01*
X379Y1021D02*
X425Y1021D01*
X178Y1020D02*
X226Y1020D01*
X278Y1020D02*
X326Y1020D01*
X378Y1020D02*
X426Y1020D01*
X177Y1019D02*
X227Y1019D01*
X277Y1019D02*
X327Y1019D01*
X377Y1019D02*
X427Y1019D01*
X176Y1018D02*
X227Y1018D01*
X276Y1018D02*
X327Y1018D01*
X376Y1018D02*
X427Y1018D01*
X176Y1017D02*
X228Y1017D01*
X276Y1017D02*
X328Y1017D01*
X376Y1017D02*
X428Y1017D01*
X175Y1016D02*
X228Y1016D01*
X275Y1016D02*
X328Y1016D01*
X375Y1016D02*
X428Y1016D01*
X175Y1015D02*
X229Y1015D01*
X275Y1015D02*
X329Y1015D01*
X375Y1015D02*
X429Y1015D01*
X174Y1014D02*
X229Y1014D01*
X274Y1014D02*
X329Y1014D01*
X374Y1014D02*
X429Y1014D01*
X174Y1013D02*
X230Y1013D01*
X274Y1013D02*
X330Y1013D01*
X374Y1013D02*
X430Y1013D01*
X173Y1012D02*
X230Y1012D01*
X273Y1012D02*
X330Y1012D01*
X373Y1012D02*
X430Y1012D01*
X173Y1011D02*
X231Y1011D01*
X273Y1011D02*
X331Y1011D01*
X373Y1011D02*
X431Y1011D01*
X173Y1010D02*
X231Y1010D01*
X273Y1010D02*
X331Y1010D01*
X373Y1010D02*
X431Y1010D01*
X172Y1009D02*
X231Y1009D01*
X272Y1009D02*
X331Y1009D01*
X372Y1009D02*
X431Y1009D01*
X172Y1008D02*
X232Y1008D01*
X272Y1008D02*
X332Y1008D01*
X372Y1008D02*
X432Y1008D01*
X172Y1007D02*
X232Y1007D01*
X272Y1007D02*
X332Y1007D01*
X372Y1007D02*
X432Y1007D01*
X172Y1006D02*
X232Y1006D01*
X272Y1006D02*
X332Y1006D01*
X372Y1006D02*
X432Y1006D01*
X172Y1005D02*
X232Y1005D01*
X272Y1005D02*
X332Y1005D01*
X372Y1005D02*
X432Y1005D01*
X172Y1004D02*
X232Y1004D01*
X272Y1004D02*
X332Y1004D01*
X372Y1004D02*
X432Y1004D01*
X171Y1003D02*
X232Y1003D01*
X271Y1003D02*
X332Y1003D01*
X371Y1003D02*
X432Y1003D01*
X171Y1002D02*
X232Y1002D01*
X271Y1002D02*
X332Y1002D01*
X371Y1002D02*
X432Y1002D01*
X171Y1001D02*
X232Y1001D01*
X271Y1001D02*
X332Y1001D01*
X371Y1001D02*
X432Y1001D01*
X171Y1000D02*
X232Y1000D01*
X271Y1000D02*
X332Y1000D01*
X371Y1000D02*
X432Y1000D01*
X171Y999D02*
X232Y999D01*
X271Y999D02*
X332Y999D01*
X371Y999D02*
X432Y999D01*
X171Y998D02*
X232Y998D01*
X271Y998D02*
X332Y998D01*
X371Y998D02*
X432Y998D01*
X171Y997D02*
X232Y997D01*
X271Y997D02*
X332Y997D01*
X371Y997D02*
X432Y997D01*
X171Y996D02*
X232Y996D01*
X271Y996D02*
X332Y996D01*
X371Y996D02*
X432Y996D01*
X171Y995D02*
X232Y995D01*
X271Y995D02*
X332Y995D01*
X371Y995D02*
X432Y995D01*
X171Y994D02*
X232Y994D01*
X271Y994D02*
X332Y994D01*
X371Y994D02*
X432Y994D01*
X171Y993D02*
X232Y993D01*
X271Y993D02*
X332Y993D01*
X371Y993D02*
X432Y993D01*
X171Y992D02*
X232Y992D01*
X271Y992D02*
X332Y992D01*
X371Y992D02*
X432Y992D01*
X171Y991D02*
X232Y991D01*
X271Y991D02*
X332Y991D01*
X371Y991D02*
X432Y991D01*
X171Y990D02*
X232Y990D01*
X271Y990D02*
X332Y990D01*
X371Y990D02*
X432Y990D01*
X171Y989D02*
X232Y989D01*
X271Y989D02*
X332Y989D01*
X371Y989D02*
X432Y989D01*
X171Y988D02*
X232Y988D01*
X271Y988D02*
X332Y988D01*
X371Y988D02*
X432Y988D01*
X171Y987D02*
X232Y987D01*
X271Y987D02*
X332Y987D01*
X371Y987D02*
X432Y987D01*
X171Y986D02*
X199Y986D01*
X204Y986D02*
X232Y986D01*
X271Y986D02*
X299Y986D01*
X304Y986D02*
X332Y986D01*
X371Y986D02*
X399Y986D01*
X404Y986D02*
X432Y986D01*
X171Y985D02*
X196Y985D01*
X207Y985D02*
X232Y985D01*
X271Y985D02*
X296Y985D01*
X307Y985D02*
X332Y985D01*
X371Y985D02*
X396Y985D01*
X407Y985D02*
X432Y985D01*
X171Y984D02*
X195Y984D01*
X209Y984D02*
X232Y984D01*
X271Y984D02*
X295Y984D01*
X309Y984D02*
X332Y984D01*
X371Y984D02*
X395Y984D01*
X409Y984D02*
X432Y984D01*
X171Y983D02*
X194Y983D01*
X210Y983D02*
X232Y983D01*
X271Y983D02*
X294Y983D01*
X310Y983D02*
X332Y983D01*
X371Y983D02*
X394Y983D01*
X410Y983D02*
X432Y983D01*
X171Y982D02*
X193Y982D01*
X211Y982D02*
X232Y982D01*
X271Y982D02*
X293Y982D01*
X311Y982D02*
X332Y982D01*
X371Y982D02*
X393Y982D01*
X411Y982D02*
X432Y982D01*
X171Y981D02*
X192Y981D01*
X212Y981D02*
X232Y981D01*
X271Y981D02*
X292Y981D01*
X312Y981D02*
X332Y981D01*
X371Y981D02*
X392Y981D01*
X412Y981D02*
X432Y981D01*
X171Y980D02*
X191Y980D01*
X212Y980D02*
X232Y980D01*
X271Y980D02*
X291Y980D01*
X312Y980D02*
X332Y980D01*
X371Y980D02*
X391Y980D01*
X412Y980D02*
X432Y980D01*
X171Y979D02*
X191Y979D01*
X213Y979D02*
X232Y979D01*
X271Y979D02*
X291Y979D01*
X313Y979D02*
X332Y979D01*
X371Y979D02*
X391Y979D01*
X413Y979D02*
X432Y979D01*
X171Y978D02*
X191Y978D01*
X213Y978D02*
X232Y978D01*
X271Y978D02*
X291Y978D01*
X313Y978D02*
X332Y978D01*
X371Y978D02*
X391Y978D01*
X413Y978D02*
X432Y978D01*
X171Y977D02*
X191Y977D01*
X213Y977D02*
X232Y977D01*
X271Y977D02*
X291Y977D01*
X313Y977D02*
X332Y977D01*
X371Y977D02*
X391Y977D01*
X413Y977D02*
X432Y977D01*
X171Y976D02*
X190Y976D01*
X213Y976D02*
X232Y976D01*
X271Y976D02*
X290Y976D01*
X313Y976D02*
X332Y976D01*
X371Y976D02*
X390Y976D01*
X413Y976D02*
X432Y976D01*
X171Y975D02*
X190Y975D01*
X213Y975D02*
X232Y975D01*
X271Y975D02*
X290Y975D01*
X313Y975D02*
X332Y975D01*
X371Y975D02*
X390Y975D01*
X413Y975D02*
X432Y975D01*
X171Y974D02*
X190Y974D01*
X213Y974D02*
X232Y974D01*
X271Y974D02*
X290Y974D01*
X313Y974D02*
X332Y974D01*
X371Y974D02*
X390Y974D01*
X413Y974D02*
X432Y974D01*
X171Y973D02*
X191Y973D01*
X213Y973D02*
X232Y973D01*
X271Y973D02*
X291Y973D01*
X313Y973D02*
X332Y973D01*
X371Y973D02*
X391Y973D01*
X413Y973D02*
X432Y973D01*
X171Y972D02*
X191Y972D01*
X213Y972D02*
X232Y972D01*
X271Y972D02*
X291Y972D01*
X313Y972D02*
X332Y972D01*
X371Y972D02*
X391Y972D01*
X413Y972D02*
X432Y972D01*
X171Y971D02*
X191Y971D01*
X213Y971D02*
X232Y971D01*
X271Y971D02*
X291Y971D01*
X313Y971D02*
X332Y971D01*
X371Y971D02*
X391Y971D01*
X413Y971D02*
X432Y971D01*
X171Y970D02*
X192Y970D01*
X212Y970D02*
X232Y970D01*
X271Y970D02*
X292Y970D01*
X312Y970D02*
X332Y970D01*
X371Y970D02*
X392Y970D01*
X412Y970D02*
X432Y970D01*
X171Y969D02*
X192Y969D01*
X212Y969D02*
X232Y969D01*
X271Y969D02*
X292Y969D01*
X311Y969D02*
X332Y969D01*
X371Y969D02*
X392Y969D01*
X411Y969D02*
X432Y969D01*
X171Y968D02*
X193Y968D01*
X211Y968D02*
X232Y968D01*
X271Y968D02*
X293Y968D01*
X311Y968D02*
X332Y968D01*
X371Y968D02*
X393Y968D01*
X411Y968D02*
X432Y968D01*
X171Y967D02*
X194Y967D01*
X210Y967D02*
X232Y967D01*
X271Y967D02*
X294Y967D01*
X310Y967D02*
X332Y967D01*
X371Y967D02*
X394Y967D01*
X410Y967D02*
X432Y967D01*
X171Y966D02*
X195Y966D01*
X208Y966D02*
X232Y966D01*
X271Y966D02*
X295Y966D01*
X308Y966D02*
X332Y966D01*
X371Y966D02*
X395Y966D01*
X408Y966D02*
X432Y966D01*
X171Y965D02*
X197Y965D01*
X207Y965D02*
X232Y965D01*
X271Y965D02*
X297Y965D01*
X307Y965D02*
X332Y965D01*
X371Y965D02*
X397Y965D01*
X407Y965D02*
X432Y965D01*
X171Y964D02*
X232Y964D01*
X271Y964D02*
X332Y964D01*
X371Y964D02*
X432Y964D01*
X171Y963D02*
X232Y963D01*
X271Y963D02*
X332Y963D01*
X371Y963D02*
X432Y963D01*
X171Y962D02*
X232Y962D01*
X271Y962D02*
X332Y962D01*
X371Y962D02*
X432Y962D01*
X171Y961D02*
X232Y961D01*
X271Y961D02*
X332Y961D01*
X371Y961D02*
X432Y961D01*
X171Y960D02*
X232Y960D01*
X271Y960D02*
X332Y960D01*
X371Y960D02*
X432Y960D01*
X171Y959D02*
X232Y959D01*
X271Y959D02*
X332Y959D01*
X371Y959D02*
X432Y959D01*
X171Y958D02*
X232Y958D01*
X271Y958D02*
X332Y958D01*
X371Y958D02*
X432Y958D01*
X171Y957D02*
X232Y957D01*
X271Y957D02*
X332Y957D01*
X371Y957D02*
X432Y957D01*
X171Y956D02*
X232Y956D01*
X271Y956D02*
X332Y956D01*
X371Y956D02*
X432Y956D01*
X171Y955D02*
X232Y955D01*
X271Y955D02*
X332Y955D01*
X371Y955D02*
X432Y955D01*
X171Y954D02*
X232Y954D01*
X271Y954D02*
X332Y954D01*
X371Y954D02*
X432Y954D01*
X171Y953D02*
X232Y953D01*
X271Y953D02*
X332Y953D01*
X371Y953D02*
X432Y953D01*
X171Y952D02*
X232Y952D01*
X271Y952D02*
X332Y952D01*
X371Y952D02*
X432Y952D01*
X171Y951D02*
X232Y951D01*
X271Y951D02*
X332Y951D01*
X371Y951D02*
X432Y951D01*
X171Y950D02*
X232Y950D01*
X271Y950D02*
X332Y950D01*
X371Y950D02*
X432Y950D01*
X171Y949D02*
X232Y949D01*
X271Y949D02*
X332Y949D01*
X371Y949D02*
X432Y949D01*
X171Y948D02*
X232Y948D01*
X271Y948D02*
X332Y948D01*
X371Y948D02*
X432Y948D01*
X171Y947D02*
X232Y947D01*
X271Y947D02*
X332Y947D01*
X371Y947D02*
X432Y947D01*
X172Y946D02*
X232Y946D01*
X272Y946D02*
X332Y946D01*
X372Y946D02*
X432Y946D01*
X172Y945D02*
X232Y945D01*
X272Y945D02*
X332Y945D01*
X372Y945D02*
X432Y945D01*
X172Y944D02*
X232Y944D01*
X272Y944D02*
X332Y944D01*
X372Y944D02*
X432Y944D01*
X172Y943D02*
X232Y943D01*
X272Y943D02*
X332Y943D01*
X372Y943D02*
X432Y943D01*
X172Y942D02*
X231Y942D01*
X272Y942D02*
X331Y942D01*
X372Y942D02*
X431Y942D01*
X173Y941D02*
X231Y941D01*
X273Y941D02*
X331Y941D01*
X373Y941D02*
X431Y941D01*
X173Y940D02*
X231Y940D01*
X273Y940D02*
X331Y940D01*
X373Y940D02*
X431Y940D01*
X173Y939D02*
X231Y939D01*
X273Y939D02*
X331Y939D01*
X373Y939D02*
X431Y939D01*
X174Y938D02*
X230Y938D01*
X274Y938D02*
X330Y938D01*
X374Y938D02*
X430Y938D01*
X174Y937D02*
X230Y937D01*
X274Y937D02*
X330Y937D01*
X374Y937D02*
X430Y937D01*
X174Y936D02*
X229Y936D01*
X274Y936D02*
X329Y936D01*
X374Y936D02*
X429Y936D01*
X175Y935D02*
X229Y935D01*
X275Y935D02*
X329Y935D01*
X375Y935D02*
X429Y935D01*
X175Y934D02*
X228Y934D01*
X275Y934D02*
X328Y934D01*
X375Y934D02*
X428Y934D01*
X176Y933D02*
X228Y933D01*
X276Y933D02*
X328Y933D01*
X376Y933D02*
X428Y933D01*
X177Y932D02*
X227Y932D01*
X277Y932D02*
X327Y932D01*
X377Y932D02*
X427Y932D01*
X177Y931D02*
X226Y931D01*
X277Y931D02*
X326Y931D01*
X377Y931D02*
X426Y931D01*
X178Y930D02*
X226Y930D01*
X278Y930D02*
X326Y930D01*
X378Y930D02*
X426Y930D01*
X179Y929D02*
X225Y929D01*
X279Y929D02*
X325Y929D01*
X379Y929D02*
X425Y929D01*
X180Y928D02*
X224Y928D01*
X280Y928D02*
X324Y928D01*
X380Y928D02*
X424Y928D01*
X181Y927D02*
X223Y927D01*
X281Y927D02*
X323Y927D01*
X381Y927D02*
X423Y927D01*
X182Y926D02*
X222Y926D01*
X282Y926D02*
X322Y926D01*
X382Y926D02*
X422Y926D01*
X183Y925D02*
X221Y925D01*
X283Y925D02*
X321Y925D01*
X383Y925D02*
X421Y925D01*
X184Y924D02*
X219Y924D01*
X284Y924D02*
X319Y924D01*
X384Y924D02*
X419Y924D01*
X186Y923D02*
X218Y923D01*
X286Y923D02*
X318Y923D01*
X386Y923D02*
X418Y923D01*
X188Y922D02*
X216Y922D01*
X288Y922D02*
X316Y922D01*
X388Y922D02*
X416Y922D01*
X190Y921D02*
X214Y921D01*
X290Y921D02*
X314Y921D01*
X390Y921D02*
X414Y921D01*
X192Y920D02*
X211Y920D01*
X292Y920D02*
X311Y920D01*
X392Y920D02*
X411Y920D01*
X196Y919D02*
X208Y919D01*
X296Y919D02*
X308Y919D01*
X396Y919D02*
X408Y919D01*
X199Y732D02*
X205Y732D01*
X299Y732D02*
X305Y732D01*
X399Y732D02*
X405Y732D01*
X194Y731D02*
X210Y731D01*
X294Y731D02*
X310Y731D01*
X394Y731D02*
X410Y731D01*
X191Y730D02*
X213Y730D01*
X291Y730D02*
X313Y730D01*
X391Y730D02*
X413Y730D01*
X189Y729D02*
X215Y729D01*
X289Y729D02*
X315Y729D01*
X389Y729D02*
X415Y729D01*
X187Y728D02*
X217Y728D01*
X287Y728D02*
X317Y728D01*
X387Y728D02*
X417Y728D01*
X185Y727D02*
X218Y727D01*
X285Y727D02*
X318Y727D01*
X385Y727D02*
X418Y727D01*
X184Y726D02*
X220Y726D01*
X284Y726D02*
X320Y726D01*
X384Y726D02*
X420Y726D01*
X183Y725D02*
X221Y725D01*
X283Y725D02*
X321Y725D01*
X383Y725D02*
X421Y725D01*
X181Y724D02*
X222Y724D01*
X281Y724D02*
X322Y724D01*
X381Y724D02*
X422Y724D01*
X180Y723D02*
X223Y723D01*
X280Y723D02*
X323Y723D01*
X380Y723D02*
X423Y723D01*
X179Y722D02*
X224Y722D01*
X279Y722D02*
X324Y722D01*
X379Y722D02*
X424Y722D01*
X179Y721D02*
X225Y721D01*
X279Y721D02*
X325Y721D01*
X379Y721D02*
X425Y721D01*
X178Y720D02*
X226Y720D01*
X278Y720D02*
X326Y720D01*
X378Y720D02*
X426Y720D01*
X177Y719D02*
X227Y719D01*
X277Y719D02*
X327Y719D01*
X377Y719D02*
X427Y719D01*
X176Y718D02*
X227Y718D01*
X276Y718D02*
X327Y718D01*
X376Y718D02*
X427Y718D01*
X176Y717D02*
X228Y717D01*
X276Y717D02*
X328Y717D01*
X376Y717D02*
X428Y717D01*
X175Y716D02*
X229Y716D01*
X275Y716D02*
X329Y716D01*
X375Y716D02*
X429Y716D01*
X175Y715D02*
X229Y715D01*
X275Y715D02*
X329Y715D01*
X375Y715D02*
X429Y715D01*
X174Y714D02*
X229Y714D01*
X274Y714D02*
X329Y714D01*
X374Y714D02*
X429Y714D01*
X174Y713D02*
X230Y713D01*
X274Y713D02*
X330Y713D01*
X374Y713D02*
X430Y713D01*
X173Y712D02*
X230Y712D01*
X273Y712D02*
X330Y712D01*
X373Y712D02*
X430Y712D01*
X173Y711D02*
X231Y711D01*
X273Y711D02*
X331Y711D01*
X373Y711D02*
X431Y711D01*
X173Y710D02*
X231Y710D01*
X273Y710D02*
X331Y710D01*
X373Y710D02*
X431Y710D01*
X172Y709D02*
X231Y709D01*
X272Y709D02*
X331Y709D01*
X372Y709D02*
X431Y709D01*
X172Y708D02*
X232Y708D01*
X272Y708D02*
X332Y708D01*
X372Y708D02*
X432Y708D01*
X172Y707D02*
X232Y707D01*
X272Y707D02*
X332Y707D01*
X372Y707D02*
X432Y707D01*
X172Y706D02*
X232Y706D01*
X272Y706D02*
X332Y706D01*
X372Y706D02*
X432Y706D01*
X172Y705D02*
X232Y705D01*
X272Y705D02*
X332Y705D01*
X372Y705D02*
X432Y705D01*
X172Y704D02*
X232Y704D01*
X272Y704D02*
X332Y704D01*
X372Y704D02*
X432Y704D01*
X171Y703D02*
X232Y703D01*
X271Y703D02*
X332Y703D01*
X371Y703D02*
X432Y703D01*
X171Y702D02*
X232Y702D01*
X271Y702D02*
X332Y702D01*
X371Y702D02*
X432Y702D01*
X171Y701D02*
X232Y701D01*
X271Y701D02*
X332Y701D01*
X371Y701D02*
X432Y701D01*
X171Y700D02*
X232Y700D01*
X271Y700D02*
X332Y700D01*
X371Y700D02*
X432Y700D01*
X171Y699D02*
X232Y699D01*
X271Y699D02*
X332Y699D01*
X371Y699D02*
X432Y699D01*
X171Y698D02*
X232Y698D01*
X271Y698D02*
X332Y698D01*
X371Y698D02*
X432Y698D01*
X171Y697D02*
X232Y697D01*
X271Y697D02*
X332Y697D01*
X371Y697D02*
X432Y697D01*
X171Y696D02*
X232Y696D01*
X271Y696D02*
X332Y696D01*
X371Y696D02*
X432Y696D01*
X171Y695D02*
X232Y695D01*
X271Y695D02*
X332Y695D01*
X371Y695D02*
X432Y695D01*
X171Y694D02*
X232Y694D01*
X271Y694D02*
X332Y694D01*
X371Y694D02*
X432Y694D01*
X171Y693D02*
X232Y693D01*
X271Y693D02*
X332Y693D01*
X371Y693D02*
X432Y693D01*
X171Y692D02*
X232Y692D01*
X271Y692D02*
X332Y692D01*
X371Y692D02*
X432Y692D01*
X171Y691D02*
X232Y691D01*
X271Y691D02*
X332Y691D01*
X371Y691D02*
X432Y691D01*
X171Y690D02*
X232Y690D01*
X271Y690D02*
X332Y690D01*
X371Y690D02*
X432Y690D01*
X171Y689D02*
X232Y689D01*
X271Y689D02*
X332Y689D01*
X371Y689D02*
X432Y689D01*
X171Y688D02*
X232Y688D01*
X271Y688D02*
X332Y688D01*
X371Y688D02*
X432Y688D01*
X171Y687D02*
X232Y687D01*
X271Y687D02*
X332Y687D01*
X371Y687D02*
X432Y687D01*
X171Y686D02*
X199Y686D01*
X205Y686D02*
X232Y686D01*
X271Y686D02*
X299Y686D01*
X305Y686D02*
X332Y686D01*
X371Y686D02*
X399Y686D01*
X405Y686D02*
X432Y686D01*
X171Y685D02*
X196Y685D01*
X207Y685D02*
X232Y685D01*
X271Y685D02*
X296Y685D01*
X307Y685D02*
X332Y685D01*
X371Y685D02*
X396Y685D01*
X407Y685D02*
X432Y685D01*
X171Y684D02*
X195Y684D01*
X209Y684D02*
X232Y684D01*
X271Y684D02*
X295Y684D01*
X309Y684D02*
X332Y684D01*
X371Y684D02*
X395Y684D01*
X409Y684D02*
X432Y684D01*
X171Y683D02*
X194Y683D01*
X210Y683D02*
X232Y683D01*
X271Y683D02*
X294Y683D01*
X310Y683D02*
X332Y683D01*
X371Y683D02*
X394Y683D01*
X410Y683D02*
X432Y683D01*
X171Y682D02*
X193Y682D01*
X211Y682D02*
X232Y682D01*
X271Y682D02*
X293Y682D01*
X311Y682D02*
X332Y682D01*
X371Y682D02*
X393Y682D01*
X411Y682D02*
X432Y682D01*
X171Y681D02*
X192Y681D01*
X212Y681D02*
X232Y681D01*
X271Y681D02*
X292Y681D01*
X312Y681D02*
X332Y681D01*
X371Y681D02*
X392Y681D01*
X412Y681D02*
X432Y681D01*
X171Y680D02*
X191Y680D01*
X212Y680D02*
X232Y680D01*
X271Y680D02*
X291Y680D01*
X312Y680D02*
X332Y680D01*
X371Y680D02*
X391Y680D01*
X412Y680D02*
X432Y680D01*
X171Y679D02*
X191Y679D01*
X213Y679D02*
X232Y679D01*
X271Y679D02*
X291Y679D01*
X313Y679D02*
X332Y679D01*
X371Y679D02*
X391Y679D01*
X413Y679D02*
X432Y679D01*
X171Y678D02*
X191Y678D01*
X213Y678D02*
X232Y678D01*
X271Y678D02*
X291Y678D01*
X313Y678D02*
X332Y678D01*
X371Y678D02*
X391Y678D01*
X413Y678D02*
X432Y678D01*
X171Y677D02*
X191Y677D01*
X213Y677D02*
X232Y677D01*
X271Y677D02*
X291Y677D01*
X313Y677D02*
X332Y677D01*
X371Y677D02*
X391Y677D01*
X413Y677D02*
X432Y677D01*
X171Y676D02*
X190Y676D01*
X213Y676D02*
X232Y676D01*
X271Y676D02*
X290Y676D01*
X313Y676D02*
X332Y676D01*
X371Y676D02*
X390Y676D01*
X413Y676D02*
X432Y676D01*
X171Y675D02*
X190Y675D01*
X213Y675D02*
X232Y675D01*
X271Y675D02*
X290Y675D01*
X313Y675D02*
X332Y675D01*
X371Y675D02*
X390Y675D01*
X413Y675D02*
X432Y675D01*
X171Y674D02*
X190Y674D01*
X213Y674D02*
X232Y674D01*
X271Y674D02*
X290Y674D01*
X313Y674D02*
X332Y674D01*
X371Y674D02*
X390Y674D01*
X413Y674D02*
X432Y674D01*
X171Y673D02*
X191Y673D01*
X213Y673D02*
X232Y673D01*
X271Y673D02*
X291Y673D01*
X313Y673D02*
X332Y673D01*
X371Y673D02*
X391Y673D01*
X413Y673D02*
X432Y673D01*
X171Y672D02*
X191Y672D01*
X213Y672D02*
X232Y672D01*
X271Y672D02*
X291Y672D01*
X313Y672D02*
X332Y672D01*
X371Y672D02*
X391Y672D01*
X413Y672D02*
X432Y672D01*
X171Y671D02*
X191Y671D01*
X213Y671D02*
X232Y671D01*
X271Y671D02*
X291Y671D01*
X313Y671D02*
X332Y671D01*
X371Y671D02*
X391Y671D01*
X413Y671D02*
X432Y671D01*
X171Y670D02*
X192Y670D01*
X212Y670D02*
X232Y670D01*
X271Y670D02*
X292Y670D01*
X312Y670D02*
X332Y670D01*
X371Y670D02*
X392Y670D01*
X412Y670D02*
X432Y670D01*
X171Y669D02*
X192Y669D01*
X211Y669D02*
X232Y669D01*
X271Y669D02*
X292Y669D01*
X311Y669D02*
X332Y669D01*
X371Y669D02*
X392Y669D01*
X411Y669D02*
X432Y669D01*
X171Y668D02*
X193Y668D01*
X211Y668D02*
X232Y668D01*
X271Y668D02*
X293Y668D01*
X311Y668D02*
X332Y668D01*
X371Y668D02*
X393Y668D01*
X411Y668D02*
X432Y668D01*
X171Y667D02*
X194Y667D01*
X210Y667D02*
X232Y667D01*
X271Y667D02*
X294Y667D01*
X310Y667D02*
X332Y667D01*
X371Y667D02*
X394Y667D01*
X410Y667D02*
X432Y667D01*
X171Y666D02*
X195Y666D01*
X208Y666D02*
X232Y666D01*
X271Y666D02*
X295Y666D01*
X308Y666D02*
X332Y666D01*
X371Y666D02*
X395Y666D01*
X408Y666D02*
X432Y666D01*
X171Y665D02*
X197Y665D01*
X207Y665D02*
X232Y665D01*
X271Y665D02*
X297Y665D01*
X307Y665D02*
X332Y665D01*
X371Y665D02*
X397Y665D01*
X407Y665D02*
X432Y665D01*
X171Y664D02*
X232Y664D01*
X271Y664D02*
X332Y664D01*
X371Y664D02*
X432Y664D01*
X171Y663D02*
X232Y663D01*
X271Y663D02*
X332Y663D01*
X371Y663D02*
X432Y663D01*
X171Y662D02*
X232Y662D01*
X271Y662D02*
X332Y662D01*
X371Y662D02*
X432Y662D01*
X171Y661D02*
X232Y661D01*
X271Y661D02*
X332Y661D01*
X371Y661D02*
X432Y661D01*
X171Y660D02*
X232Y660D01*
X271Y660D02*
X332Y660D01*
X371Y660D02*
X432Y660D01*
X171Y659D02*
X232Y659D01*
X271Y659D02*
X332Y659D01*
X371Y659D02*
X432Y659D01*
X171Y658D02*
X232Y658D01*
X271Y658D02*
X332Y658D01*
X371Y658D02*
X432Y658D01*
X171Y657D02*
X232Y657D01*
X271Y657D02*
X332Y657D01*
X371Y657D02*
X432Y657D01*
X171Y656D02*
X232Y656D01*
X271Y656D02*
X332Y656D01*
X371Y656D02*
X432Y656D01*
X171Y655D02*
X232Y655D01*
X271Y655D02*
X332Y655D01*
X371Y655D02*
X432Y655D01*
X171Y654D02*
X232Y654D01*
X271Y654D02*
X332Y654D01*
X371Y654D02*
X432Y654D01*
X171Y653D02*
X232Y653D01*
X271Y653D02*
X332Y653D01*
X371Y653D02*
X432Y653D01*
X171Y652D02*
X232Y652D01*
X271Y652D02*
X332Y652D01*
X371Y652D02*
X432Y652D01*
X171Y651D02*
X232Y651D01*
X271Y651D02*
X332Y651D01*
X371Y651D02*
X432Y651D01*
X171Y650D02*
X232Y650D01*
X271Y650D02*
X332Y650D01*
X371Y650D02*
X432Y650D01*
X171Y649D02*
X232Y649D01*
X271Y649D02*
X332Y649D01*
X371Y649D02*
X432Y649D01*
X171Y648D02*
X232Y648D01*
X271Y648D02*
X332Y648D01*
X371Y648D02*
X432Y648D01*
X171Y647D02*
X232Y647D01*
X271Y647D02*
X332Y647D01*
X371Y647D02*
X432Y647D01*
X172Y646D02*
X232Y646D01*
X272Y646D02*
X332Y646D01*
X372Y646D02*
X432Y646D01*
X172Y645D02*
X232Y645D01*
X272Y645D02*
X332Y645D01*
X372Y645D02*
X432Y645D01*
X172Y644D02*
X232Y644D01*
X272Y644D02*
X332Y644D01*
X372Y644D02*
X432Y644D01*
X172Y643D02*
X232Y643D01*
X272Y643D02*
X332Y643D01*
X372Y643D02*
X432Y643D01*
X172Y642D02*
X231Y642D01*
X272Y642D02*
X331Y642D01*
X372Y642D02*
X431Y642D01*
X173Y641D02*
X231Y641D01*
X273Y641D02*
X331Y641D01*
X373Y641D02*
X431Y641D01*
X173Y640D02*
X231Y640D01*
X273Y640D02*
X331Y640D01*
X373Y640D02*
X431Y640D01*
X173Y639D02*
X231Y639D01*
X273Y639D02*
X331Y639D01*
X373Y639D02*
X430Y639D01*
X174Y638D02*
X230Y638D01*
X274Y638D02*
X330Y638D01*
X374Y638D02*
X430Y638D01*
X174Y637D02*
X230Y637D01*
X274Y637D02*
X330Y637D01*
X374Y637D02*
X430Y637D01*
X174Y636D02*
X229Y636D01*
X274Y636D02*
X329Y636D01*
X374Y636D02*
X429Y636D01*
X175Y635D02*
X229Y635D01*
X275Y635D02*
X329Y635D01*
X375Y635D02*
X429Y635D01*
X175Y634D02*
X228Y634D01*
X275Y634D02*
X328Y634D01*
X375Y634D02*
X428Y634D01*
X176Y633D02*
X228Y633D01*
X276Y633D02*
X328Y633D01*
X376Y633D02*
X428Y633D01*
X177Y632D02*
X227Y632D01*
X277Y632D02*
X327Y632D01*
X377Y632D02*
X427Y632D01*
X177Y631D02*
X226Y631D01*
X277Y631D02*
X326Y631D01*
X377Y631D02*
X426Y631D01*
X178Y630D02*
X226Y630D01*
X278Y630D02*
X326Y630D01*
X378Y630D02*
X426Y630D01*
X179Y629D02*
X225Y629D01*
X279Y629D02*
X325Y629D01*
X379Y629D02*
X425Y629D01*
X180Y628D02*
X224Y628D01*
X280Y628D02*
X324Y628D01*
X380Y628D02*
X424Y628D01*
X181Y627D02*
X223Y627D01*
X281Y627D02*
X323Y627D01*
X381Y627D02*
X423Y627D01*
X182Y626D02*
X222Y626D01*
X282Y626D02*
X322Y626D01*
X382Y626D02*
X422Y626D01*
X183Y625D02*
X221Y625D01*
X283Y625D02*
X321Y625D01*
X383Y625D02*
X421Y625D01*
X184Y624D02*
X219Y624D01*
X284Y624D02*
X319Y624D01*
X384Y624D02*
X419Y624D01*
X186Y623D02*
X218Y623D01*
X286Y623D02*
X318Y623D01*
X386Y623D02*
X418Y623D01*
X188Y622D02*
X216Y622D01*
X288Y622D02*
X316Y622D01*
X388Y622D02*
X416Y622D01*
X190Y621D02*
X214Y621D01*
X290Y621D02*
X314Y621D01*
X390Y621D02*
X414Y621D01*
X192Y620D02*
X211Y620D01*
X292Y620D02*
X311Y620D01*
X392Y620D02*
X411Y620D01*
X196Y619D02*
X208Y619D01*
X296Y619D02*
X308Y619D01*
X396Y619D02*
X408Y619D01*
X1317Y467D02*
X1409Y467D01*
X1313Y466D02*
X1414Y466D01*
X1310Y465D02*
X1417Y465D01*
X1307Y464D02*
X1420Y464D01*
X1305Y463D02*
X1422Y463D01*
X1303Y462D02*
X1424Y462D01*
X1301Y461D02*
X1425Y461D01*
X1300Y460D02*
X1427Y460D01*
X1298Y459D02*
X1428Y459D01*
X1297Y458D02*
X1430Y458D01*
X1296Y457D02*
X1431Y457D01*
X1295Y456D02*
X1432Y456D01*
X1293Y455D02*
X1433Y455D01*
X1292Y454D02*
X1434Y454D01*
X1292Y453D02*
X1435Y453D01*
X1291Y452D02*
X1436Y452D01*
X1290Y451D02*
X1437Y451D01*
X1289Y450D02*
X1437Y450D01*
X1288Y449D02*
X1438Y449D01*
X1288Y448D02*
X1439Y448D01*
X1287Y447D02*
X1440Y447D01*
X1286Y446D02*
X1440Y446D01*
X1286Y445D02*
X1441Y445D01*
X1285Y444D02*
X1441Y444D01*
X1285Y443D02*
X1442Y443D01*
X1284Y442D02*
X1442Y442D01*
X1284Y441D02*
X1443Y441D01*
X1283Y440D02*
X1443Y440D01*
X1283Y439D02*
X1444Y439D01*
X1283Y438D02*
X1444Y438D01*
X1282Y437D02*
X1357Y437D01*
X1369Y437D02*
X1444Y437D01*
X1282Y436D02*
X1355Y436D01*
X1371Y436D02*
X1445Y436D01*
X1282Y435D02*
X1354Y435D01*
X1373Y435D02*
X1445Y435D01*
X1281Y434D02*
X1353Y434D01*
X1374Y434D02*
X1445Y434D01*
X1281Y433D02*
X1352Y433D01*
X1375Y433D02*
X1445Y433D01*
X1281Y432D02*
X1351Y432D01*
X1376Y432D02*
X1446Y432D01*
X1281Y431D02*
X1350Y431D01*
X1376Y431D02*
X1446Y431D01*
X1281Y430D02*
X1350Y430D01*
X1377Y430D02*
X1446Y430D01*
X1280Y429D02*
X1349Y429D01*
X1377Y429D02*
X1446Y429D01*
X1280Y428D02*
X1349Y428D01*
X1378Y428D02*
X1446Y428D01*
X1280Y427D02*
X1349Y427D01*
X1378Y427D02*
X1446Y427D01*
X1280Y426D02*
X1348Y426D01*
X1378Y426D02*
X1446Y426D01*
X1280Y425D02*
X1348Y425D01*
X1378Y425D02*
X1446Y425D01*
X1280Y424D02*
X1348Y424D01*
X1378Y424D02*
X1446Y424D01*
X1280Y423D02*
X1348Y423D01*
X1378Y423D02*
X1446Y423D01*
X1280Y422D02*
X1348Y422D01*
X1378Y422D02*
X1446Y422D01*
X1280Y421D02*
X1348Y421D01*
X1378Y421D02*
X1446Y421D01*
X1280Y420D02*
X1348Y420D01*
X1378Y420D02*
X1446Y420D01*
X1280Y419D02*
X1349Y419D01*
X1378Y419D02*
X1446Y419D01*
X1280Y418D02*
X1349Y418D01*
X1378Y418D02*
X1446Y418D01*
X1281Y417D02*
X1349Y417D01*
X1377Y417D02*
X1446Y417D01*
X1281Y416D02*
X1350Y416D01*
X1377Y416D02*
X1446Y416D01*
X1281Y415D02*
X1351Y415D01*
X1376Y415D02*
X1446Y415D01*
X1281Y414D02*
X1351Y414D01*
X1375Y414D02*
X1445Y414D01*
X1281Y413D02*
X1352Y413D01*
X1374Y413D02*
X1445Y413D01*
X1282Y412D02*
X1353Y412D01*
X1373Y412D02*
X1445Y412D01*
X1282Y411D02*
X1355Y411D01*
X1372Y411D02*
X1445Y411D01*
X1282Y410D02*
X1356Y410D01*
X1370Y410D02*
X1444Y410D01*
X1283Y409D02*
X1359Y409D01*
X1367Y409D02*
X1444Y409D01*
X1283Y408D02*
X1444Y408D01*
X1283Y407D02*
X1443Y407D01*
X1284Y406D02*
X1443Y406D01*
X1284Y405D02*
X1442Y405D01*
X1285Y404D02*
X1442Y404D01*
X1285Y403D02*
X1441Y403D01*
X1286Y402D02*
X1441Y402D01*
X1286Y401D02*
X1440Y401D01*
X1287Y400D02*
X1440Y400D01*
X1287Y399D02*
X1439Y399D01*
X1288Y398D02*
X1439Y398D01*
X1289Y397D02*
X1438Y397D01*
X1290Y396D02*
X1437Y396D01*
X1290Y395D02*
X1436Y395D01*
X1291Y394D02*
X1435Y394D01*
X1292Y393D02*
X1434Y393D01*
X1293Y392D02*
X1434Y392D01*
X1294Y391D02*
X1432Y391D01*
X1295Y390D02*
X1431Y390D01*
X1296Y389D02*
X1430Y389D01*
X1298Y388D02*
X1429Y388D01*
X1552Y388D02*
X1568Y388D01*
X1299Y387D02*
X1428Y387D01*
X1548Y387D02*
X1572Y387D01*
X1301Y386D02*
X1426Y386D01*
X1545Y386D02*
X1575Y386D01*
X1302Y385D02*
X1424Y385D01*
X1543Y385D02*
X1578Y385D01*
X1304Y384D02*
X1422Y384D01*
X1541Y384D02*
X1580Y384D01*
X1306Y383D02*
X1420Y383D01*
X1539Y383D02*
X1582Y383D01*
X1309Y382D02*
X1418Y382D01*
X1537Y382D02*
X1583Y382D01*
X1311Y381D02*
X1415Y381D01*
X1535Y381D02*
X1585Y381D01*
X1315Y380D02*
X1411Y380D01*
X1534Y380D02*
X1586Y380D01*
X1324Y379D02*
X1403Y379D01*
X1533Y379D02*
X1588Y379D01*
X1531Y378D02*
X1589Y378D01*
X1530Y377D02*
X1590Y377D01*
X1529Y376D02*
X1591Y376D01*
X1528Y375D02*
X1592Y375D01*
X1527Y374D02*
X1593Y374D01*
X1527Y373D02*
X1594Y373D01*
X1526Y372D02*
X1594Y372D01*
X1525Y371D02*
X1595Y371D01*
X1524Y370D02*
X1596Y370D01*
X1524Y369D02*
X1597Y369D01*
X1523Y368D02*
X1597Y368D01*
X1522Y367D02*
X1598Y367D01*
X1522Y366D02*
X1598Y366D01*
X1521Y365D02*
X1599Y365D01*
X1521Y364D02*
X1599Y364D01*
X1520Y363D02*
X1600Y363D01*
X1520Y362D02*
X1600Y362D01*
X1520Y361D02*
X1601Y361D01*
X1519Y360D02*
X1601Y360D01*
X1519Y359D02*
X1601Y359D01*
X1518Y358D02*
X1602Y358D01*
X1518Y357D02*
X1602Y357D01*
X1518Y356D02*
X1602Y356D01*
X1518Y355D02*
X1603Y355D01*
X1517Y354D02*
X1603Y354D01*
X1517Y353D02*
X1603Y353D01*
X1517Y352D02*
X1603Y352D01*
X1517Y351D02*
X1603Y351D01*
X1517Y350D02*
X1604Y350D01*
X1516Y349D02*
X1604Y349D01*
X1516Y348D02*
X1604Y348D01*
X1516Y347D02*
X1604Y347D01*
X1516Y346D02*
X1604Y346D01*
X1516Y345D02*
X1604Y345D01*
X1516Y344D02*
X1604Y344D01*
X1516Y343D02*
X1604Y343D01*
X1516Y342D02*
X1604Y342D01*
X1516Y341D02*
X1604Y341D01*
X1516Y340D02*
X1604Y340D01*
X1516Y339D02*
X1604Y339D01*
X1516Y338D02*
X1604Y338D01*
X1516Y337D02*
X1604Y337D01*
X1516Y336D02*
X1604Y336D01*
X1516Y335D02*
X1604Y335D01*
X1516Y334D02*
X1604Y334D01*
X1516Y333D02*
X1604Y333D01*
X1516Y332D02*
X1604Y332D01*
X1516Y331D02*
X1604Y331D01*
X1516Y330D02*
X1604Y330D01*
X1516Y329D02*
X1604Y329D01*
X1516Y328D02*
X1604Y328D01*
X1516Y327D02*
X1604Y327D01*
X1516Y326D02*
X1604Y326D01*
X1516Y325D02*
X1604Y325D01*
X1516Y324D02*
X1604Y324D01*
X1516Y323D02*
X1604Y323D01*
X1516Y322D02*
X1604Y322D01*
X1516Y321D02*
X1604Y321D01*
X1516Y320D02*
X1604Y320D01*
X1516Y319D02*
X1554Y319D01*
X1566Y319D02*
X1604Y319D01*
X1516Y318D02*
X1552Y318D01*
X1568Y318D02*
X1604Y318D01*
X1516Y317D02*
X1551Y317D01*
X1569Y317D02*
X1604Y317D01*
X1516Y316D02*
X1550Y316D01*
X1571Y316D02*
X1604Y316D01*
X1516Y315D02*
X1549Y315D01*
X1571Y315D02*
X1604Y315D01*
X1516Y314D02*
X1548Y314D01*
X1572Y314D02*
X1604Y314D01*
X1516Y313D02*
X1547Y313D01*
X1573Y313D02*
X1604Y313D01*
X1516Y312D02*
X1547Y312D01*
X1574Y312D02*
X1604Y312D01*
X1516Y311D02*
X1546Y311D01*
X1574Y311D02*
X1604Y311D01*
X1516Y310D02*
X1546Y310D01*
X1575Y310D02*
X1604Y310D01*
X1516Y309D02*
X1545Y309D01*
X1575Y309D02*
X1604Y309D01*
X1516Y308D02*
X1545Y308D01*
X1575Y308D02*
X1604Y308D01*
X1516Y307D02*
X1545Y307D01*
X1575Y307D02*
X1604Y307D01*
X1516Y306D02*
X1545Y306D01*
X1575Y306D02*
X1604Y306D01*
X1516Y305D02*
X1545Y305D01*
X1575Y305D02*
X1604Y305D01*
X1516Y304D02*
X1545Y304D01*
X1575Y304D02*
X1604Y304D01*
X1516Y303D02*
X1545Y303D01*
X1575Y303D02*
X1604Y303D01*
X1516Y302D02*
X1545Y302D01*
X1575Y302D02*
X1604Y302D01*
X1516Y301D02*
X1546Y301D01*
X1575Y301D02*
X1604Y301D01*
X1516Y300D02*
X1546Y300D01*
X1574Y300D02*
X1604Y300D01*
X1516Y299D02*
X1546Y299D01*
X1574Y299D02*
X1604Y299D01*
X1516Y298D02*
X1547Y298D01*
X1573Y298D02*
X1604Y298D01*
X1516Y297D02*
X1547Y297D01*
X1573Y297D02*
X1604Y297D01*
X1516Y296D02*
X1548Y296D01*
X1572Y296D02*
X1604Y296D01*
X1516Y295D02*
X1549Y295D01*
X1571Y295D02*
X1604Y295D01*
X1516Y294D02*
X1550Y294D01*
X1570Y294D02*
X1604Y294D01*
X1516Y293D02*
X1551Y293D01*
X1569Y293D02*
X1604Y293D01*
X1516Y292D02*
X1553Y292D01*
X1567Y292D02*
X1604Y292D01*
X1516Y291D02*
X1556Y291D01*
X1564Y291D02*
X1604Y291D01*
X1516Y290D02*
X1604Y290D01*
X1516Y289D02*
X1604Y289D01*
X1516Y288D02*
X1604Y288D01*
X1516Y287D02*
X1604Y287D01*
X1516Y286D02*
X1604Y286D01*
X1516Y285D02*
X1604Y285D01*
X1516Y284D02*
X1604Y284D01*
X1516Y283D02*
X1604Y283D01*
X1516Y282D02*
X1604Y282D01*
X1516Y281D02*
X1604Y281D01*
X1516Y280D02*
X1604Y280D01*
X1516Y279D02*
X1604Y279D01*
X1516Y278D02*
X1604Y278D01*
X1516Y277D02*
X1604Y277D01*
X1516Y276D02*
X1604Y276D01*
X1516Y275D02*
X1604Y275D01*
X1516Y274D02*
X1604Y274D01*
X1516Y273D02*
X1604Y273D01*
X1516Y272D02*
X1604Y272D01*
X1516Y271D02*
X1604Y271D01*
X1516Y270D02*
X1604Y270D01*
X1516Y269D02*
X1604Y269D01*
X1516Y268D02*
X1604Y268D01*
X1516Y267D02*
X1604Y267D01*
X1516Y266D02*
X1604Y266D01*
X1516Y265D02*
X1604Y265D01*
X1516Y264D02*
X1604Y264D01*
X1516Y263D02*
X1604Y263D01*
X1516Y262D02*
X1604Y262D01*
X1517Y261D02*
X1604Y261D01*
X1517Y260D02*
X1604Y260D01*
X1517Y259D02*
X1603Y259D01*
X1517Y258D02*
X1603Y258D01*
X1517Y257D02*
X1603Y257D01*
X1517Y256D02*
X1603Y256D01*
X1518Y255D02*
X1603Y255D01*
X1518Y254D02*
X1602Y254D01*
X1518Y253D02*
X1602Y253D01*
X1519Y252D02*
X1602Y252D01*
X1519Y251D02*
X1601Y251D01*
X1519Y250D02*
X1601Y250D01*
X1520Y249D02*
X1601Y249D01*
X1520Y248D02*
X1600Y248D01*
X1521Y247D02*
X1600Y247D01*
X1521Y246D02*
X1599Y246D01*
X1522Y245D02*
X1599Y245D01*
X1522Y244D02*
X1598Y244D01*
X1523Y243D02*
X1597Y243D01*
X1523Y242D02*
X1597Y242D01*
X1524Y241D02*
X1596Y241D01*
X1525Y240D02*
X1596Y240D01*
X1525Y239D02*
X1595Y239D01*
X1526Y238D02*
X1594Y238D01*
X1527Y237D02*
X1593Y237D01*
X1528Y236D02*
X1592Y236D01*
X1529Y235D02*
X1591Y235D01*
X1530Y234D02*
X1590Y234D01*
X1531Y233D02*
X1589Y233D01*
X1532Y232D02*
X1588Y232D01*
X1533Y231D02*
X1587Y231D01*
X1535Y230D02*
X1586Y230D01*
X1536Y229D02*
X1584Y229D01*
X1538Y228D02*
X1582Y228D01*
X1539Y227D02*
X1581Y227D01*
X1541Y226D02*
X1579Y226D01*
X1544Y225D02*
X1577Y225D01*
X1546Y224D02*
X1574Y224D01*
X1550Y223D02*
X1571Y223D01*
X1554Y222D02*
X1566Y222D01*
X1317Y219D02*
X1409Y219D01*
X1313Y218D02*
X1414Y218D01*
X1310Y217D02*
X1417Y217D01*
X1307Y216D02*
X1420Y216D01*
X1305Y215D02*
X1422Y215D01*
X1303Y214D02*
X1424Y214D01*
X1301Y213D02*
X1425Y213D01*
X1300Y212D02*
X1427Y212D01*
X1298Y211D02*
X1428Y211D01*
X1297Y210D02*
X1430Y210D01*
X1296Y209D02*
X1431Y209D01*
X1294Y208D02*
X1432Y208D01*
X1293Y207D02*
X1433Y207D01*
X1292Y206D02*
X1434Y206D01*
X1292Y205D02*
X1435Y205D01*
X1291Y204D02*
X1436Y204D01*
X1290Y203D02*
X1437Y203D01*
X1289Y202D02*
X1437Y202D01*
X1288Y201D02*
X1438Y201D01*
X1288Y200D02*
X1439Y200D01*
X1287Y199D02*
X1440Y199D01*
X1286Y198D02*
X1440Y198D01*
X1286Y197D02*
X1441Y197D01*
X1285Y196D02*
X1441Y196D01*
X1285Y195D02*
X1442Y195D01*
X1284Y194D02*
X1442Y194D01*
X1284Y193D02*
X1443Y193D01*
X1283Y192D02*
X1443Y192D01*
X1283Y191D02*
X1444Y191D01*
X1283Y190D02*
X1444Y190D01*
X1282Y189D02*
X1357Y189D01*
X1369Y189D02*
X1444Y189D01*
X1282Y188D02*
X1355Y188D01*
X1371Y188D02*
X1445Y188D01*
X1282Y187D02*
X1354Y187D01*
X1373Y187D02*
X1445Y187D01*
X1281Y186D02*
X1353Y186D01*
X1374Y186D02*
X1445Y186D01*
X1281Y185D02*
X1352Y185D01*
X1375Y185D02*
X1445Y185D01*
X1281Y184D02*
X1351Y184D01*
X1376Y184D02*
X1446Y184D01*
X1281Y183D02*
X1350Y183D01*
X1376Y183D02*
X1446Y183D01*
X1281Y182D02*
X1350Y182D01*
X1377Y182D02*
X1446Y182D01*
X1280Y181D02*
X1349Y181D01*
X1377Y181D02*
X1446Y181D01*
X1280Y180D02*
X1349Y180D01*
X1378Y180D02*
X1446Y180D01*
X1280Y179D02*
X1349Y179D01*
X1378Y179D02*
X1446Y179D01*
X1280Y178D02*
X1348Y178D01*
X1378Y178D02*
X1446Y178D01*
X1280Y177D02*
X1348Y177D01*
X1378Y177D02*
X1446Y177D01*
X1280Y176D02*
X1348Y176D01*
X1378Y176D02*
X1446Y176D01*
X1280Y175D02*
X1348Y175D01*
X1378Y175D02*
X1446Y175D01*
X1280Y174D02*
X1348Y174D01*
X1378Y174D02*
X1446Y174D01*
X1280Y173D02*
X1348Y173D01*
X1378Y173D02*
X1446Y173D01*
X1280Y172D02*
X1348Y172D01*
X1378Y172D02*
X1446Y172D01*
X1280Y171D02*
X1349Y171D01*
X1378Y171D02*
X1446Y171D01*
X1280Y170D02*
X1349Y170D01*
X1378Y170D02*
X1446Y170D01*
X1281Y169D02*
X1349Y169D01*
X1377Y169D02*
X1446Y169D01*
X1281Y168D02*
X1350Y168D01*
X1377Y168D02*
X1446Y168D01*
X1281Y167D02*
X1351Y167D01*
X1376Y167D02*
X1446Y167D01*
X1281Y166D02*
X1352Y166D01*
X1375Y166D02*
X1445Y166D01*
X1281Y165D02*
X1352Y165D01*
X1374Y165D02*
X1445Y165D01*
X1282Y164D02*
X1354Y164D01*
X1373Y164D02*
X1445Y164D01*
X1282Y163D02*
X1355Y163D01*
X1372Y163D02*
X1445Y163D01*
X1282Y162D02*
X1357Y162D01*
X1370Y162D02*
X1444Y162D01*
X1283Y161D02*
X1359Y161D01*
X1367Y161D02*
X1444Y161D01*
X1283Y160D02*
X1444Y160D01*
X1283Y159D02*
X1443Y159D01*
X1284Y158D02*
X1443Y158D01*
X1284Y157D02*
X1442Y157D01*
X1285Y156D02*
X1442Y156D01*
X1285Y155D02*
X1441Y155D01*
X1286Y154D02*
X1441Y154D01*
X1286Y153D02*
X1440Y153D01*
X1287Y152D02*
X1440Y152D01*
X1287Y151D02*
X1439Y151D01*
X1288Y150D02*
X1438Y150D01*
X1289Y149D02*
X1438Y149D01*
X1290Y148D02*
X1437Y148D01*
X1290Y147D02*
X1436Y147D01*
X1291Y146D02*
X1435Y146D01*
X1292Y145D02*
X1434Y145D01*
X1293Y144D02*
X1434Y144D01*
X1294Y143D02*
X1432Y143D01*
X1295Y142D02*
X1431Y142D01*
X1296Y141D02*
X1430Y141D01*
X1298Y140D02*
X1429Y140D01*
X1299Y139D02*
X1427Y139D01*
X1301Y138D02*
X1426Y138D01*
X1302Y137D02*
X1424Y137D01*
X1304Y136D02*
X1422Y136D01*
X1306Y135D02*
X1420Y135D01*
X1309Y134D02*
X1418Y134D01*
X1311Y133D02*
X1415Y133D01*
X1315Y132D02*
X1411Y132D01*
X1324Y131D02*
X1403Y131D01*
D02*
G04 End of Mask1*
M02*